<?xml version="1.0" encoding="UTF-8" standalone="no"?>
<svg
   version="1.0"
   x="0px"
   y="0px"
   viewBox="0 0 72.612999 100"
   enable-background="new 0 0 72.613 100"
   xml:space="preserve"
   id="svg832"
   sodipodi:docname="Robot_(699)_-_The_Noun_Project.svg"
   width="72.612999"
   height="100"
   inkscape:version="1.1.2 (b8e25be8, 2022-02-05)"
   xmlns:inkscape="http://www.inkscape.org/namespaces/inkscape"
   xmlns:sodipodi="http://sodipodi.sourceforge.net/DTD/sodipodi-0.dtd"
   xmlns="http://www.w3.org/2000/svg"
   xmlns:svg="http://www.w3.org/2000/svg"><defs
     id="defs836" /><sodipodi:namedview
     id="namedview834"
     pagecolor="#ffffff"
     bordercolor="#666666"
     borderopacity="1.0"
     inkscape:pageshadow="2"
     inkscape:pageopacity="0.0"
     inkscape:pagecheckerboard="0"
     showgrid="false"
     inkscape:zoom="5"
     inkscape:cx="62.4"
     inkscape:cy="62.5"
     inkscape:window-width="1312"
     inkscape:window-height="847"
     inkscape:window-x="0"
     inkscape:window-y="25"
     inkscape:window-maximized="0"
     inkscape:current-layer="svg832" /><circle
     cx="23.177"
     cy="18.700001"
     r="4.1729999"
     id="circle824" /><circle
     cx="49.436001"
     cy="18.700001"
     r="4.1729999"
     id="circle826" /><path
     d="m 0,0 v 39.225 h 31.896 v 3.34 L 0,42.567 V 100 h 18.544 l 14.114,-14.114 -8.111,-8.11 8.111,-8.111 -2.371,-2.37 -10.48,10.481 4.598,4.599 -9.279,9.28 H 8.346 V 50.912 h 55.921 v 40.742 h -6.778 l -9.28,-9.28 4.599,-4.599 -10.483,-10.481 -2.371,2.37 8.112,8.111 -8.112,8.11 L 54.069,100 H 72.613 V 42.567 L 40.717,42.566 v -3.34 H 72.613 V 0 Z M 64.267,30.879 H 8.346 V 7.75 h 55.921 z"
     id="path828" /><rect
     x="-34.143639"
     y="75.845726"
     transform="rotate(-45)"
     width="9.6409073"
     height="9.6419077"
     id="rect830"
     style="stroke-width:0.99999" /></svg>
