<svg xmlns="http://www.w3.org/2000/svg" viewBox="0 0 66.561 73.5">
  <g transform="translate(0 -223.5)" stroke="#000">
    <path d="M10.774 257.996H32.69v-2.94l-20.914-.467-6.415-19.712s-2.605.87-3.006.87c-.401 0 6.615 21.247 6.615 21.247l1.737-.4zm-8.82.201l-.066 5.278h37.217l.067-5.345zm16.17 5.48l-1.002.466.268 27.396 11.693.2s.668 5.078.2 5.011c-.468-.066-27.195.2-27.195.2l-.2-5.077 5.88-.334v-27.462l-.468-.4z" stroke-width=".265"/>
    <ellipse cx="45.004" cy="233.003" rx="6.763" ry="7.098" stroke-width=".258"/>
    <path d="M47.1 241.27a3.233 3.233 0 0 1 1.103-.79c.635-.29 1.593-.535 2.58-.386.99.15 1.975.675 2.65 1.323.675.647 1.04 1.445 1.964 5.845.925 4.4 2.417 12.416 3.074 17.093s.479 6.014.19 6.927c-.29.913-.691 1.403-2.15 1.637-1.46.234-3.975.212-5.38-.824-1.402-1.036-1.692-3.085-2.315-6.95-.624-3.863-1.582-9.543-1.95-13.797-.367-4.254-.144-7.083-.032-8.497.11-1.414.11-1.414.267-1.581zM44.21 274.742c-.078.283-.235.85-.188 1.418.047.567.3 1.134.82 1.535.519.402 1.306.638 4.456.764 3.149.126 8.662.142 11.69-.052 3.028-.194 3.587-.61 3.862-1.192.276-.583.276-1.34.126-2-.15-.662-.45-1.23-3.92-1.34-3.473-.11-10.12.237-13.443.41-3.323.174-3.323.174-3.402.457z" stroke-width=".265"/>
    <path d="M48.784 271.184c-.11-1.126-.334-3.38-.502-4.485-.168-1.107.28-1.265-2.02-1.265s-6.742-.047-9.248.083c-2.506.13-3.062.438-3.541.936-.48.499-.88 1.185-.936 2.704-.056 1.518.234 3.865.69 7.693.457 3.83 1.08 9.14 1.515 12.354.434 3.212.68 4.327 1.247 5.145.573.811 1.435 1.335 2.383 1.446.91.095 1.82-.166 2.562-.734.679-.535 1.08-1.294.846-5.003-.233-3.709-1.102-10.374-1.526-13.718-.423-3.343-.4-3.366.294-3.279.694.088 2.093.29 3.83.302 1.738.011 3.83-.165 4.742-.407-.51-1.266 0 0 0 0-.134-.153-.225-.646-.336-1.772z" stroke-width=".273"/>
    <path d="M45.558 277.733l-.277 19.176 1.94-.104.462-19.176z" stroke-width=".281"/>
    <path d="M61.908 277.688l-.277 19.438 1.94-.105.462-19.439z" stroke-width=".283"/>
    <path d="M59.97 278.693l-.174 15.644 1.222-.085.291-15.644z" stroke-width=".201"/>
    <path d="M48.683 278.517l-.175 15.72 1.222-.085.291-15.72z" stroke-width=".202"/>
    <path d="M60.83 244.65c.74 0 2.216 0 3.07 5.277.854 5.278 1.086 15.833 1.196 21.115.109 5.28.101 5.285-.235 5.3-.337.016-.951.04-1.362.051-.412.012-.537.011-.781.117-.244.107-1.23.741-1.876-4.565-.646-5.306-1.279-16.329-1.402-21.833-.122-5.504.265-5.483.459-5.472.193.01.193.01.932.01z" stroke-width=".305"/>
    <path d="M18.755 252.258c-.089.129-.172.261-.25.397a2.24 2.24 0 0 0-.306.8c-.051.34-.018.721.153 1.075.17.353.473.664.87.84.395.178.88.221 2.834-.356 1.953-.577 5.372-1.773 9.25-3.298 3.876-1.524 14.687-3.838 17.637-5.283 2.95-1.446-2.235-4.324-1.68-5.163.556-.839.397.85-4.559 2.32-4.955 1.467-14.432 5.036-19.169 6.818-4.736 1.783-4.736 1.783-4.78 1.85z" stroke-width=".319"/>
    <path d="M28.215 253.922a6.53 6.53 0 0 0-.146.416 2.715 2.715 0 0 0-.145.82c-.002.342.064.718.23 1.056.165.338.427.622.744.765.316.145.685.15 2.091-.582 1.407-.73 3.848-2.196 6.6-4.024 2.75-1.829 10.628-5 12.69-6.675 2.063-1.676-2.14-4.12-1.813-4.999.328-.878.39.814-3.178 2.674-3.568 1.86-10.309 6.171-13.678 8.325-3.37 2.154-3.37 2.154-3.395 2.224z" stroke-width=".277"/>
    <path stroke-width=".172" d="M12.928 254.345h.601v.234h-.601z"/>
    <path stroke-width=".211" d="M14.754 254.391h.902v.234h-.902zM16.54 254.358h.902v.234h-.902zM18.26 254.623h.902v.234h-.902z"/>
    <path stroke-width=".326" d="M24.095 254.779h3.439v.146h-3.439z"/>
  </g>
</svg>